PathFileType	4	(X/Y/Z)	D:\TRACE\v60_Jaco2_6-2-23\BothDRS_Motion2_1-platform.trc
DataRate	CameraRate	NumFrames	NumMarkers	Units	OrigDataRate	OrigDataStartFrame	OrigNumFrames
100.00	100.00	      30	5	mm	100.00	938	      7500
Frame#	Time	Left_Front			Right_Front			Left_Aft			Right_Aft			Post			
		X1	Y1	Z1	X2	Y2	Z2	X3	Y3	Z3	X4	Y4	Z4	X5	Y5	Z5	

938	9.370	-752.86353	67.75890	-622.04224	817.42859	68.95406	-627.23743	-661.02985	-34.01947	508.39246	781.59851	-36.91762	517.73059	33.97530	1390.23279	-826.12640	
939	9.380	-753.10126	68.35400	-621.88794	816.83307	69.43216	-627.27295	-661.16144	-33.99918	508.40488	781.46014	-37.21547	517.87860	33.48066	1390.72229	-824.24213	
940	9.390	-753.40796	68.92449	-621.95355	816.48724	69.84001	-627.06824	-661.53711	-34.26558	508.32703	781.03680	-37.51806	517.93024	32.87873	1391.31677	-823.23297	
941	9.400	-753.81158	69.37972	-621.95300	816.01471	70.25152	-626.93872	-662.33252	-34.82325	508.30124	780.33740	-37.67480	517.25409	32.59881	1391.97437	-822.61835	
942	9.410	-754.56006	69.56676	-621.82196	815.43427	70.59658	-626.76990	-662.78467	-35.06932	508.52084	780.03192	-38.08095	518.11395	32.10318	1392.52393	-822.61011	
943	9.420	-755.14813	69.96050	-621.63995	815.03088	70.89231	-626.64374	-663.18829	-35.48702	508.68777	779.38739	-38.56917	518.27313	31.83452	1392.96387	-822.74237	
944	9.430	-755.79498	70.79788	-621.42828	814.48193	71.25224	-626.51471	-663.75916	-35.92412	508.74951	778.87817	-38.88104	518.36945	31.24175	1393.58997	-823.18713	
945	9.440	-755.98132	71.11494	-621.33881	813.96033	71.63979	-626.40210	-664.07910	-36.08676	508.87216	778.63580	-39.20163	518.30438	31.04132	1394.22546	-823.17529	
946	9.450	-756.43671	71.36250	-621.10272	813.57758	71.92571	-626.21631	-664.46936	-36.28863	508.98889	778.05573	-39.37584	518.11517	30.31032	1394.80298	-822.70917	
947	9.460	-756.99078	71.63496	-620.99176	812.91504	72.20230	-626.02612	-665.18481	-36.57810	509.06049	777.64142	-39.75514	518.32758	29.81852	1395.40637	-821.77350	
948	9.470	-757.49481	71.69022	-620.95331	812.42487	72.55487	-625.97382	-665.75220	-36.74517	509.05374	776.92523	-39.95943	518.46741	29.34413	1395.47327	-820.97858	
949	9.480	-758.41748	71.82184	-620.74677	811.88110	72.67123	-625.95654	-666.29059	-36.98120	509.10202	776.19666	-39.87532	518.50635	28.68862	1395.49597	-819.57373	
950	9.490	-758.93884	71.89675	-620.93689	811.28418	72.72765	-625.80646	-666.98016	-36.94189	509.06332	775.69513	-39.84095	518.57068	27.73294	1395.61963	-817.88715	
951	9.500	-759.56335	72.10667	-620.99597	810.61969	72.95607	-625.81445	-667.41669	-36.76573	509.00958	775.12891	-39.91783	518.46838	27.38643	1395.58167	-816.40021	
952	9.510	-760.15216	72.01264	-620.89520	810.05151	72.95230	-626.01044	-668.08563	-36.82733	509.02618	774.56567	-40.05010	518.68866	26.57277	1395.60950	-815.83270	
953	9.520	-760.61633	71.97719	-620.82416	809.40253	72.91716	-626.00653	-668.85492	-36.94537	508.95233	774.16095	-40.08780	518.70502	25.82758	1395.49683	-815.34521	
954	9.530	-761.41248	71.99866	-620.72113	808.77612	72.78076	-625.88885	-669.59827	-36.91930	508.90179	773.36786	-39.91222	518.64673	25.15055	1395.41699	-815.63068	
955	9.540	-762.13116	71.94623	-620.79999	807.87537	72.69077	-625.84821	-670.24518	-36.57119	508.73325	772.51251	-39.85787	518.69427	24.51730	1395.40686	-816.78564	
956	9.550	-762.87390	71.98559	-620.95319	807.16638	72.64759	-625.85187	-671.04425	-36.52735	508.90613	771.67267	-39.66692	518.73309	24.05226	1395.31836	-817.77075	
957	9.560	-763.67462	71.95016	-620.85565	806.33258	72.50603	-626.02759	-671.64844	-36.51188	508.88605	771.46368	-40.01230	518.91699	23.30157	1395.47131	-819.56329	
958	9.570	-764.07593	71.88247	-620.88739	805.85626	72.55276	-626.04742	-672.16644	-36.47112	508.85501	770.83154	-40.09872	518.68188	22.87901	1395.38794	-820.94440	
959	9.580	-764.94965	71.67772	-620.87646	805.19061	72.44863	-625.96686	-673.04309	-36.61868	508.69934	769.54681	-40.02441	518.22455	22.06616	1395.30603	-821.68390	
960	9.590	-765.90906	71.43696	-621.03802	804.16626	72.13895	-626.00806	-673.82568	-36.48922	508.52423	768.75385	-39.80101	518.26691	21.38663	1395.12598	-822.11902	
961	9.600	-766.73163	71.16584	-621.17120	803.25238	71.77602	-626.28827	-674.32538	-36.16191	508.34103	768.12646	-39.66183	518.13446	20.35783	1394.64319	-822.38696	
962	9.610	-767.31000	71.13476	-621.32587	802.64148	71.61186	-626.30017	-675.39673	-35.91462	508.29245	767.47241	-39.43880	518.00684	19.45777	1394.16541	-822.38409	
963	9.620	-767.87457	70.92145	-621.51434	801.90314	71.43443	-626.34064	-676.46405	-35.50090	508.68567	767.06360	-39.45778	517.81445	18.68873	1393.77942	-822.20459	
964	9.630	-769.16614	70.32461	-621.24756	800.97449	71.11504	-626.35876	-677.12122	-35.43636	508.73343	765.05945	-38.37291	518.57153	17.44653	1393.12500	-821.46320	
965	9.640	-770.03931	70.06708	-621.47656	800.01257	70.57502	-626.71338	-678.02936	-35.32958	508.68558	764.90240	-39.15964	517.27759	16.91909	1392.51123	-821.30768	
966	9.650	-770.87689	69.43442	-621.88922	799.27771	70.32636	-626.84015	-678.85199	-34.88115	508.51761	763.53296	-37.62542	518.47467	15.93636	1391.66577	-821.55542	
967	9.660	-771.38177	68.90492	-621.88696	798.56012	70.04813	-626.77466	-679.85089	-34.32729	508.32263	762.57294	-36.98858	519.20587	14.96728	1391.20789	-822.81335	
